<svg id="Layer_1" data-name="Layer 1" xmlns="http://www.w3.org/2000/svg" viewBox="0 0 1249.65 258.88"><defs><style>.cls-1{fill:#00205c;}.cls-2{fill:#a8ad00;}.cls-3{fill:#00a0df;}.cls-4{fill:#ac441e;}</style></defs><path class="cls-1" d="M994.35,25.34l.45-2.77h11l-.41,2.77h-3.61l-1.86,12.93h-3.69L998,25.34Z" transform="translate(0)"/><path class="cls-1" d="M1014.05,22.57l.7,10.81.06,2.31.49-2.31L1019,22.57h5.3l-.25,15.7h-3.62l.92-11.68.27-2.4-.76,2.39-4.48,11.69h-4l-1.23-11.68,0-2.4-.5,2.4-2.54,11.68h-3.58l4.3-15.7Z" transform="translate(0)"/><path class="cls-1" d="M396.55,231.15a3.34,3.34,0,0,1,3.36-3.36H417a3.06,3.06,0,1,1,0,6.11H403.28v6.51h11.79a3.06,3.06,0,1,1,0,6.11H403.28v8.74a3.37,3.37,0,0,1-6.73,0Z" transform="translate(0)"/><path class="cls-1" d="M432.45,230.89a3.36,3.36,0,0,1,6.72,0v21.35h12.45a3.06,3.06,0,0,1,0,6.12H435.81a3.34,3.34,0,0,1-3.36-3.36Z" transform="translate(0)"/><path class="cls-1" d="M463.63,243.16v-.09c0-8.69,6.85-15.81,16.29-15.81s16.2,7,16.2,15.73v.08c0,8.69-6.86,15.81-16.29,15.81S463.63,251.85,463.63,243.16Zm25.46,0v-.09a9.29,9.29,0,0,0-9.26-9.61c-5.42,0-9.17,4.28-9.17,9.53v.08a9.29,9.29,0,0,0,9.26,9.61C485.33,252.68,489.09,248.4,489.09,243.16Z" transform="translate(0)"/><path class="cls-1" d="M506.55,232.07a4.49,4.49,0,0,1-.26-1.27,3.33,3.33,0,0,1,3.45-3.27,3.4,3.4,0,0,1,3.28,2.4l6.07,18.73,6.11-18.56a3.55,3.55,0,0,1,3.41-2.66h.52a3.49,3.49,0,0,1,3.41,2.66l6.11,18.56,6.07-18.73a3.38,3.38,0,0,1,3.24-2.4,3.24,3.24,0,0,1,3.32,3.23,4.78,4.78,0,0,1-.27,1.31l-8.56,24a3.72,3.72,0,0,1-3.49,2.75h-.7a3.63,3.63,0,0,1-3.45-2.75l-6-17.52-6,17.52a3.64,3.64,0,0,1-3.45,2.75h-.7a3.74,3.74,0,0,1-3.5-2.75Z" transform="translate(0)"/><path class="cls-1" d="M598.14,234h-6.46a3.1,3.1,0,1,1,0-6.2h19.65a3.1,3.1,0,0,1,0,6.2h-6.46v21.27a3.37,3.37,0,0,1-6.73,0Z" transform="translate(0)"/><path class="cls-1" d="M626.57,255V231.15a3.34,3.34,0,0,1,3.36-3.36h17a3,3,0,0,1,3,3,3,3,0,0,1-3,3H633.25V240h11.66a3,3,0,0,1,3,3,3,3,0,0,1-3,3H633.25v6.42H647.1a3,3,0,0,1,3,3,3,3,0,0,1-3,3H629.93A3.34,3.34,0,0,1,626.57,255Z" transform="translate(0)"/><path class="cls-1" d="M661.72,243.16v-.09a15.55,15.55,0,0,1,15.95-15.81,16.26,16.26,0,0,1,10.22,3.1A3.41,3.41,0,0,1,689.2,233a3.28,3.28,0,0,1-3.32,3.27,3.57,3.57,0,0,1-2-.65,10.07,10.07,0,0,0-6.25-2.19c-5.15,0-8.86,4.28-8.86,9.53v.08c0,5.24,3.62,9.61,8.86,9.61a9.8,9.8,0,0,0,6.64-2.4,3.13,3.13,0,0,1,5.15,2.36,3.15,3.15,0,0,1-1.13,2.4,16.12,16.12,0,0,1-26.56-11.88Z" transform="translate(0)"/><path class="cls-1" d="M702.56,230.89a3.36,3.36,0,1,1,6.72,0v9h12.4v-9a3.37,3.37,0,0,1,6.73,0v24.37a3.37,3.37,0,0,1-6.73,0v-9.17h-12.4v9.17a3.36,3.36,0,1,1-6.72,0Z" transform="translate(0)"/><path class="cls-1" d="M743,231a3.35,3.35,0,0,1,3.37-3.37h.69a4.18,4.18,0,0,1,3.5,2l13,17V230.84a3.32,3.32,0,0,1,6.64,0v24.33a3.34,3.34,0,0,1-3.36,3.36h-.22a4.17,4.17,0,0,1-3.5-2l-13.45-17.65V255.3a3.32,3.32,0,0,1-6.64,0Z" transform="translate(0)"/><path class="cls-1" d="M783.39,243.16v-.09c0-8.69,6.85-15.81,16.29-15.81s16.2,7,16.2,15.73v.08c0,8.69-6.86,15.81-16.29,15.81S783.39,251.85,783.39,243.16Zm25.46,0v-.09a9.29,9.29,0,0,0-9.26-9.61c-5.42,0-9.17,4.28-9.17,9.53v.08a9.29,9.29,0,0,0,9.26,9.61C805.09,252.68,808.85,248.4,808.85,243.16Z" transform="translate(0)"/><path class="cls-1" d="M829.11,230.89a3.37,3.37,0,0,1,6.73,0v21.35h12.44a3.06,3.06,0,1,1,0,6.12H832.47a3.34,3.34,0,0,1-3.36-3.36Z" transform="translate(0)"/><path class="cls-1" d="M860.29,243.16v-.09c0-8.69,6.86-15.81,16.29-15.81s16.2,7,16.2,15.73v.08c0,8.69-6.85,15.81-16.29,15.81S860.29,251.85,860.29,243.16Zm25.46,0v-.09a9.29,9.29,0,0,0-9.26-9.61c-5.41,0-9.17,4.28-9.17,9.53v.08a9.29,9.29,0,0,0,9.26,9.61C882,252.68,885.75,248.4,885.75,243.16Z" transform="translate(0)"/><path class="cls-1" d="M904.66,243.16v-.09a15.69,15.69,0,0,1,16-15.81c4.63,0,7.69,1.05,10.44,3a3.35,3.35,0,0,1,1.4,2.71,3.32,3.32,0,0,1-3.32,3.32,3.27,3.27,0,0,1-2.05-.7,10.72,10.72,0,0,0-6.68-2.1c-4.89,0-8.78,4.33-8.78,9.53v.08c0,5.59,3.84,9.7,9.26,9.7a10.68,10.68,0,0,0,6.33-1.84v-4.36h-4.54a2.89,2.89,0,0,1-2.93-2.89,2.93,2.93,0,0,1,2.93-2.92h7.68a3.34,3.34,0,0,1,3.37,3.36v7.43a4.57,4.57,0,0,1-2.36,4.28,20.44,20.44,0,0,1-10.7,3C911.21,258.88,904.66,252.2,904.66,243.16Z" transform="translate(0)"/><path class="cls-1" d="M955.83,246.57,946,233.16a4,4,0,0,1-.83-2.4,3.29,3.29,0,0,1,3.37-3.23,3.85,3.85,0,0,1,3.32,2.05l7.42,10.7,7.56-10.79a3.86,3.86,0,0,1,3.23-2,3.11,3.11,0,0,1,3.27,3.28,4.2,4.2,0,0,1-.87,2.36l-9.87,13.32v8.82a3.37,3.37,0,0,1-6.73,0Z" transform="translate(0)"/><path class="cls-2" d="M1170.05,57.24a83.9,83.9,0,0,1,21,17.19l.18-.3A83.81,83.81,0,0,0,1119,2.56a107.92,107.92,0,0,0-58.72,176.77A83.9,83.9,0,0,1,1170.05,57.24Z" transform="translate(0)"/><path class="cls-3" d="M1171.47,158.14a83.47,83.47,0,0,1-25.38,9.59l.18.3a83.76,83.76,0,0,0,98.06-26.72A107.9,107.9,0,0,0,1120.61,2.08a83.88,83.88,0,0,1,50.86,156.06Z" transform="translate(0)"/><path class="cls-4" d="M1083.24,109a83.74,83.74,0,0,1,4.38-26.77h-.35a83.79,83.79,0,0,0-25.89,98.28A107.91,107.91,0,0,0,1243.83,143a83.89,83.89,0,0,1-160.59-34Z" transform="translate(0)"/><path class="cls-1" d="M70.52,200.54c-25.77,0-45.32-9.57-58.16-27.74-12.28-17.43-15.47-39-9.3-64.8C8.81,83.94,23.19,61.85,44.71,44.91,66,28,89.77,19.14,114.63,19.14c40.86,0,69.35,26.75,70.28,69.71H138.69c-5.21-17.18-17-26.26-34.26-26.26-26.07,0-51.31,20.12-57.43,45.65-6.65,27.74,9.84,49.1,33.91,49.1,16.46,0,33.08-8.84,46.32-25h46.44C151.86,174.77,112.5,200.54,70.52,200.54Z" transform="translate(0)"/><polygon class="cls-1" points="244.38 61.62 296.53 61.62 306.02 22.57 211.02 22.57 201.58 61.62 244.38 61.62"/><polygon class="cls-1" points="194.87 89.34 168.8 197.1 263.56 197.1 272.93 158.56 220.86 158.56 228.24 128.13 280.34 128.13 289.77 89.34 237.65 89.34 194.87 89.34"/><path class="cls-1" d="M287.4,197.1,329.92,22.57H372.5l-33.22,136h49.86L379.7,197.1Z" transform="translate(0)"/><path class="cls-1" d="M897,139.66l-.49,2c-3.59,14.23.08,21.11,10.64,21.11,10.32,0,17.82-5.4,20.11-14.49,4-15.95-7.7-17.18-24.7-25.77-23.08-11.78-32.1-28.72-26.79-49.83,7.84-31.17,37.58-53.51,73-53.51,31.5,0,48.07,20.13,40.18,51.3l-.69,2.7H948.93c2.73-10.8-1.62-16.94-11.71-16.94a17.4,17.4,0,0,0-16.81,13c-3.28,13,8.83,15.71,28.29,27.25,20.74,12.27,28.38,27.74,23.1,48.6-7.71,30.44-39.08,55.48-71.49,55.48-38.78,0-54.46-19.64-45.08-56.95l1-3.93Z" transform="translate(0)"/><polygon class="cls-1" points="472.7 61.62 524.85 61.62 534.47 22.57 439.47 22.57 429.9 61.62 472.7 61.62"/><polygon class="cls-1" points="423.1 89.34 396.67 197.1 491.42 197.1 500.93 158.56 448.86 158.56 456.34 128.13 508.44 128.13 518 89.34 465.88 89.34 423.1 89.34"/><path class="cls-1" d="M658.79,32.15c-9.74-8.35-23.46-9.58-41.92-9.58H558.79l-9.65,39.05h42.8v0h11.8c18.94,0,26.58,5.9,23,20.38-3.9,15.71-15.56,21.11-36.7,21.11h-8.36l3.42-13.78H542.3L515.67,197.1h42.71l13.93-56.21,19.46,56.21h52.78l-27.84-59.89c26.52-6.87,46.52-28,53.55-56.21C675.63,59.4,671.61,43,658.79,32.15Z" transform="translate(0)"/><path class="cls-1" d="M740.55,200.53q-38.64,0-58.64-26t-10.45-64.08Q681,71.86,713.31,45.75t70.4-26.1q38.22,0,58.42,26.23t11.58,64.34q-8.78,38.11-41.45,64.21T740.55,200.53ZM774.82,59.06q-20.09,0-37,14.55a67.47,67.47,0,0,0-22.18,36.09q-5.37,22.08,4.7,36.75T751,161.12q19.75,0,36.74-14.67a66.66,66.66,0,0,0,21.92-36q5.11-21.81-5-36.61T774.82,59.06Z" transform="translate(0)"/></svg>